<?xml version="1.0" encoding="utf-8"?>
<!-- Generator: Adobe Illustrator 18.0.0, SVG Export Plug-In . SVG Version: 6.00 Build 0)  -->
<!DOCTYPE svg PUBLIC "-//W3C//DTD SVG 1.1//EN" "http://www.w3.org/Graphics/SVG/1.1/DTD/svg11.dtd" [
	<!ENTITY ns_flows "http://ns.adobe.com/Flows/1.0/">
	<!ENTITY ns_extend "http://ns.adobe.com/Extensibility/1.0/">
	<!ENTITY ns_ai "http://ns.adobe.com/AdobeIllustrator/10.0/">
	<!ENTITY ns_graphs "http://ns.adobe.com/Graphs/1.0/">
]>
<svg version="1.1" id="Layer_1" xmlns:x="&ns_extend;" xmlns:i="&ns_ai;" xmlns:graph="&ns_graphs;"
	 xmlns="http://www.w3.org/2000/svg" xmlns:xlink="http://www.w3.org/1999/xlink" xmlns:a="http://ns.adobe.com/AdobeSVGViewerExtensions/3.0/"
	 x="0px" y="0px" viewBox="0 0 150 150" enable-background="new 0 0 150 150" xml:space="preserve">
<path fill="#FFFFFF" d="M75,11.7c-34.9,0-63.3,28.3-63.3,63.3c0,25.2,14.8,46.8,36,57l2-38.2c0,0-3.7-1.2-4.5-1.6
	c-7.9-3.5-13.6-13.7-13.6-27c0-14.5,11.2-27,22.1-27.1h0c10.9,0.1,22.1,12.6,22.1,27.1c0,13.3-5.7,23.6-13.6,27
	c-0.1,0-4.6,1.7-4.6,1.7l2.2,42.5c4.9,1.2,9.9,1.9,15.1,1.9c7,0,13.8-1.2,20.1-3.3l2-37.9c-5.2-1.1-9.6-4.4-12.3-8.6
	C81.3,83.4,87.4,38,87.4,38h3.9v42.5h3.9V38h4.3v42.5h3.9V38h4.4v42.5h3.9V38h3c0,0,6,45.3,2.6,50.5c-2.7,4.1-7.1,7.3-12.2,8.5
	c-0.1,0-0.2,0.1-0.2,0.1l1.7,32.6c18.8-10.9,31.5-31.3,31.5-54.7C138.2,40.1,109.9,11.7,75,11.7L75,11.7z M75,11.7"/>
<path fill="#FFFFFF" d="M40.8,58.7c0.2-0.9,0.5-1.8,0.5-1.8c0.1-0.3-0.1-0.7-0.5-0.9c-0.3-0.2-0.8-0.1-1,0.2c0,0-0.4,0.7-1.1,1.7
	c-0.5,0.9-1.3,2.3-1.8,4c-0.5,1.5-1,3.6-1.2,5.8c-0.1,1.2-0.1,2.3-0.1,3.4c0.1,1.3,0.3,2.4,0.7,3.6c1.2,3.5,2.2,7,5.7,10.3
	c1.1,1.1,2.2,1.9,3,2.4l0.3,0.2c0.2,0.1,0.3,0.2,0.5,0.3c0.7,0.3,1.1,0.5,1.2,0.5c0.3,0.1,0.7-0.1,0.8-0.3c0.1-0.3,0-0.7-0.3-0.9
	c0,0-0.4-0.3-0.9-1c-0.3-0.4-0.7-0.9-1.2-1.6c-0.3-0.5-0.7-1-1-1.5c-1.7-2.6-2.7-6.1-4-9.8c-0.3-0.8-0.5-1.8-0.6-2.7
	c-0.1-1-0.2-2-0.2-2.9c0-2.1,0.1-3.9,0.3-5.4C40.4,60.8,40.5,59.6,40.8,58.7L40.8,58.7z M40.8,58.7"/>
<path fill="#FFFFFF" d="M75,0C33.6,0,0,33.6,0,75c0,41.3,33.6,75,75,75c41.4,0,75-33.7,75-75C150,33.6,116.4,0,75,0L75,0z M75,144.4
	c-38.3,0-69.4-31.1-69.4-69.4C5.6,36.7,36.7,5.6,75,5.6s69.4,31.2,69.4,69.4C144.4,113.3,113.3,144.4,75,144.4L75,144.4z M75,144.4"
	/>
</svg>
