<?xml version="1.0" encoding="utf-8"?>
<!-- Generator: Adobe Illustrator 18.0.0, SVG Export Plug-In . SVG Version: 6.00 Build 0)  -->
<!DOCTYPE svg PUBLIC "-//W3C//DTD SVG 1.1//EN" "http://www.w3.org/Graphics/SVG/1.1/DTD/svg11.dtd" [
	<!ENTITY ns_flows "http://ns.adobe.com/Flows/1.0/">
	<!ENTITY ns_extend "http://ns.adobe.com/Extensibility/1.0/">
	<!ENTITY ns_ai "http://ns.adobe.com/AdobeIllustrator/10.0/">
	<!ENTITY ns_graphs "http://ns.adobe.com/Graphs/1.0/">
]>
<svg version="1.1" id="Layer_1" xmlns:x="&ns_extend;" xmlns:i="&ns_ai;" xmlns:graph="&ns_graphs;"
	 xmlns="http://www.w3.org/2000/svg" xmlns:xlink="http://www.w3.org/1999/xlink" xmlns:a="http://ns.adobe.com/AdobeSVGViewerExtensions/3.0/"
	 x="0px" y="0px" viewBox="0 0 150 150" enable-background="new 0 0 150 150" xml:space="preserve">
<path fill="#FFFFFF" d="M79,74.7l31.7,34l-6.1,6.2L66.3,80.8l-0.7-5.4l2.7-51.2h8L79,74.7z M150,75c0,41.4-33.6,75-75,75
	c-41.4,0-75-33.6-75-75C0,33.6,33.6,0,75,0C116.4,0,150,33.6,150,75 M137.5,75c0-34.5-28-62.5-62.5-62.5c-34.5,0-62.5,28-62.5,62.5
	c0,34.5,28,62.5,62.5,62.5C109.5,137.5,137.5,109.5,137.5,75"/>
</svg>
