<?xml version="1.0" encoding="utf-8"?>
<!-- Generator: Adobe Illustrator 18.0.0, SVG Export Plug-In . SVG Version: 6.00 Build 0)  -->
<!DOCTYPE svg PUBLIC "-//W3C//DTD SVG 1.1//EN" "http://www.w3.org/Graphics/SVG/1.1/DTD/svg11.dtd">
<svg version="1.1" id="Layer_1" xmlns="http://www.w3.org/2000/svg" xmlns:xlink="http://www.w3.org/1999/xlink" x="0px" y="0px"
	 viewBox="0 0 200 200" style="enable-background:new 0 0 200 200;" xml:space="preserve">
<style type="text/css">
	.st0{fill:#FFFFFF;}
	.st1{fill:#26BDBD;}
</style>
<g id="tab-icon">
</g>
<g>
	<path class="st0" d="M110.1,55.5l23.1,23.1L87,124.6H64v-23.1L110.1,55.5z M84.1,117.5l5-5l-13-13l-5,5v5.9h7.1v7.1H84.1z
		 M113.1,66.1c0-0.8-0.4-1.2-1.2-1.2c-0.4,0-0.7,0.1-0.9,0.4l-30,30c-0.3,0.3-0.4,0.6-0.4,0.9c0,0.8,0.4,1.2,1.2,1.2
		c0.4,0,0.7-0.1,0.9-0.4l30-30C112.9,66.8,113.1,66.5,113.1,66.1z M147.9,60.8c0,2-0.7,3.6-2.1,5l-9.2,9.2l-23.1-23.1l9.2-9.1
		c1.3-1.4,3-2.1,5-2.1c2,0,3.6,0.7,5,2.1l13,13C147.2,57.2,147.9,58.9,147.9,60.8z"/>
</g>
<g>
	<g>
		<path class="st0" d="M45.4,157.4l3.8,1.2c-0.6,2.1-1.5,3.7-2.9,4.7c-1.3,1-3.1,1.5-5.1,1.5c-2.6,0-4.7-0.9-6.3-2.6
			c-1.7-1.8-2.5-4.1-2.5-7.2c0-3.2,0.8-5.7,2.5-7.5c1.7-1.8,3.8-2.7,6.5-2.7c2.4,0,4.3,0.7,5.8,2.1c0.9,0.8,1.5,2,2,3.6l-3.9,0.9
			c-0.2-1-0.7-1.8-1.4-2.4c-0.7-0.6-1.6-0.9-2.6-0.9c-1.4,0-2.6,0.5-3.5,1.5c-0.9,1-1.3,2.7-1.3,5c0,2.4,0.4,4.2,1.3,5.2
			c0.9,1,2,1.6,3.4,1.6c1,0,1.9-0.3,2.7-1S45.1,158.8,45.4,157.4z"/>
		<path class="st0" d="M61.7,164.5v-2.1c-0.5,0.7-1.2,1.3-2,1.8c-0.8,0.4-1.7,0.6-2.6,0.6c-0.9,0-1.8-0.2-2.5-0.6
			c-0.7-0.4-1.3-1-1.6-1.7c-0.3-0.7-0.5-1.8-0.5-3.1v-8.8h3.7v6.4c0,2,0.1,3.2,0.2,3.6c0.1,0.4,0.4,0.8,0.7,1.1
			c0.4,0.3,0.8,0.4,1.4,0.4c0.6,0,1.2-0.2,1.7-0.5s0.8-0.8,1-1.3c0.2-0.5,0.3-1.8,0.3-3.8v-5.9h3.7v14H61.7z"/>
		<path class="st0" d="M67.7,160.5l3.7-0.6c0.2,0.7,0.5,1.3,1,1.6c0.5,0.4,1.2,0.6,2,0.6c1,0,1.7-0.2,2.2-0.5c0.3-0.2,0.5-0.6,0.5-1
			c0-0.3-0.1-0.5-0.3-0.7c-0.2-0.2-0.6-0.3-1.2-0.5c-3-0.7-4.9-1.3-5.7-1.8c-1.1-0.8-1.7-1.8-1.7-3.1c0-1.2,0.5-2.2,1.4-3.1
			s2.4-1.2,4.5-1.2c1.9,0,3.3,0.3,4.3,0.9c0.9,0.6,1.6,1.5,1.9,2.8l-3.5,0.6c-0.1-0.5-0.4-1-0.8-1.3c-0.4-0.3-1-0.4-1.8-0.4
			c-1,0-1.7,0.1-2.1,0.4c-0.3,0.2-0.4,0.4-0.4,0.8c0,0.3,0.1,0.5,0.4,0.7c0.3,0.2,1.5,0.6,3.5,1c2,0.4,3.3,1,4.1,1.6
			c0.8,0.7,1.2,1.6,1.2,2.8c0,1.3-0.5,2.4-1.6,3.3c-1.1,0.9-2.7,1.4-4.8,1.4c-1.9,0-3.4-0.4-4.5-1.2S68,161.8,67.7,160.5z"/>
		<path class="st0" d="M90.4,150.5v2.9h-2.5v5.6c0,1.1,0,1.8,0.1,2c0,0.2,0.2,0.3,0.3,0.5s0.4,0.2,0.6,0.2c0.3,0,0.8-0.1,1.5-0.4
			l0.3,2.9c-0.9,0.4-1.8,0.6-2.9,0.6c-0.7,0-1.3-0.1-1.8-0.3s-0.9-0.5-1.2-0.9s-0.4-0.8-0.5-1.4c-0.1-0.4-0.1-1.3-0.1-2.6v-6.1h-1.7
			v-2.9h1.7v-2.8l3.7-2.2v4.9H90.4z"/>
		<path class="st0" d="M92.1,157.3c0-1.2,0.3-2.4,0.9-3.6s1.5-2,2.6-2.6s2.4-0.9,3.7-0.9c2.1,0,3.8,0.7,5.2,2.1c1.4,1.4,2,3.1,2,5.2
			c0,2.1-0.7,3.9-2,5.3c-1.4,1.4-3.1,2.1-5.2,2.1c-1.3,0-2.5-0.3-3.7-0.9s-2-1.4-2.7-2.5S92.1,158.9,92.1,157.3z M95.9,157.5
			c0,1.4,0.3,2.4,1,3.2s1.5,1.1,2.4,1.1s1.8-0.4,2.4-1.1c0.7-0.7,1-1.8,1-3.2c0-1.4-0.3-2.4-1-3.2c-0.7-0.7-1.5-1.1-2.4-1.1
			s-1.8,0.4-2.4,1.1S95.9,156.1,95.9,157.5z"/>
		<path class="st0" d="M109.1,150.5h3.4v1.9c1.2-1.5,2.7-2.2,4.4-2.2c0.9,0,1.7,0.2,2.3,0.6c0.7,0.4,1.2,0.9,1.6,1.7
			c0.6-0.7,1.3-1.3,2-1.7c0.7-0.4,1.5-0.6,2.3-0.6c1,0,1.9,0.2,2.6,0.6s1.2,1,1.6,1.8c0.3,0.6,0.4,1.6,0.4,2.9v8.9H126v-8
			c0-1.4-0.1-2.3-0.4-2.7c-0.3-0.5-0.9-0.8-1.6-0.8c-0.5,0-1,0.2-1.5,0.5c-0.5,0.3-0.8,0.8-1,1.4c-0.2,0.6-0.3,1.6-0.3,2.9v6.7h-3.7
			v-7.7c0-1.4-0.1-2.2-0.2-2.6c-0.1-0.4-0.3-0.7-0.6-0.9c-0.3-0.2-0.7-0.3-1.1-0.3c-0.6,0-1.1,0.2-1.5,0.5c-0.5,0.3-0.8,0.8-1,1.3
			c-0.2,0.6-0.3,1.5-0.3,2.9v6.8h-3.7V150.5z"/>
		<path class="st0" d="M133.4,148.6v-3.4h3.7v3.4H133.4z M133.4,164.5v-14h3.7v14H133.4z"/>
		<path class="st0" d="M139.6,160.5l3.7-0.6c0.2,0.7,0.5,1.3,1,1.6c0.5,0.4,1.2,0.6,2,0.6c1,0,1.7-0.2,2.2-0.5
			c0.3-0.2,0.5-0.6,0.5-1c0-0.3-0.1-0.5-0.3-0.7c-0.2-0.2-0.6-0.3-1.2-0.5c-3-0.7-4.9-1.3-5.7-1.8c-1.1-0.8-1.7-1.8-1.7-3.1
			c0-1.2,0.5-2.2,1.4-3.1c1-0.8,2.4-1.2,4.5-1.2c1.9,0,3.3,0.3,4.3,0.9c0.9,0.6,1.6,1.5,1.9,2.8l-3.5,0.6c-0.1-0.5-0.4-1-0.8-1.3
			c-0.4-0.3-1-0.4-1.8-0.4c-1,0-1.7,0.1-2.1,0.4c-0.3,0.2-0.4,0.4-0.4,0.8c0,0.3,0.1,0.5,0.4,0.7c0.3,0.2,1.5,0.6,3.5,1
			c2,0.4,3.3,1,4.1,1.6c0.8,0.7,1.2,1.6,1.2,2.8c0,1.3-0.5,2.4-1.6,3.3c-1.1,0.9-2.7,1.4-4.8,1.4c-1.9,0-3.4-0.4-4.5-1.2
			S139.9,161.8,139.6,160.5z"/>
		<path class="st0" d="M164,160l3.7,0.6c-0.5,1.4-1.2,2.4-2.2,3.1c-1,0.7-2.3,1.1-3.8,1.1c-2.4,0-4.2-0.8-5.4-2.4
			c-0.9-1.3-1.4-2.9-1.4-4.8c0-2.3,0.6-4.1,1.8-5.4c1.2-1.3,2.7-2,4.6-2c2.1,0,3.7,0.7,4.9,2.1c1.2,1.4,1.8,3.5,1.7,6.3h-9.3
			c0,1.1,0.3,2,0.9,2.6c0.6,0.6,1.3,0.9,2.1,0.9c0.6,0,1.1-0.2,1.5-0.5C163.5,161.2,163.8,160.7,164,160z M164.2,156.3
			c0-1.1-0.3-1.9-0.8-2.4s-1.2-0.8-1.9-0.8c-0.8,0-1.5,0.3-2,0.9c-0.5,0.6-0.8,1.4-0.8,2.4H164.2z"/>
	</g>
</g>
</svg>
