<?xml version="1.0" encoding="utf-8"?>
<!-- Generator: Adobe Illustrator 18.0.0, SVG Export Plug-In . SVG Version: 6.00 Build 0)  -->
<!DOCTYPE svg PUBLIC "-//W3C//DTD SVG 1.1//EN" "http://www.w3.org/Graphics/SVG/1.1/DTD/svg11.dtd">
<svg version="1.1" id="Layer_1" xmlns="http://www.w3.org/2000/svg" xmlns:xlink="http://www.w3.org/1999/xlink" x="0px" y="0px"
	 viewBox="0 0 200 200" style="enable-background:new 0 0 200 200;" xml:space="preserve">
<style type="text/css">
	.st0{fill:#FFFFFF;}
	.st1{fill:#26BDBD;}
</style>
<g id="tab-icon">
	<path class="st0" d="M51.8,164.5v-19.9h6l3.6,13.6l3.6-13.6h6v19.9h-3.7v-15.7l-4,15.7h-3.9l-3.9-15.7v15.7H51.8z"/>
	<path class="st0" d="M73.3,150h4.1l3.5,10.3l3.4-10.3h4L83,163.9l-0.9,2.5c-0.3,0.8-0.7,1.5-1,1.9s-0.7,0.8-1,1.1
		c-0.4,0.3-0.9,0.5-1.5,0.6c-0.6,0.2-1.2,0.2-2,0.2c-0.7,0-1.5-0.1-2.2-0.2l-0.3-3c0.6,0.1,1.1,0.2,1.6,0.2c0.9,0,1.5-0.3,2-0.8
		c0.4-0.5,0.8-1.2,1-2L73.3,150z"/>
	<path class="st0" d="M111.1,157.1l3.9,1.2c-0.6,2.2-1.6,3.8-3,4.9s-3.2,1.6-5.3,1.6c-2.6,0-4.8-0.9-6.5-2.7
		c-1.7-1.8-2.6-4.3-2.6-7.4c0-3.3,0.9-5.9,2.6-7.7s4-2.8,6.8-2.8c2.4,0,4.4,0.7,5.9,2.2c0.9,0.9,1.6,2.1,2,3.7l-4,1
		c-0.2-1-0.7-1.9-1.5-2.4s-1.7-0.9-2.7-0.9c-1.5,0-2.7,0.5-3.6,1.6c-0.9,1.1-1.4,2.8-1.4,5.2c0,2.5,0.5,4.3,1.4,5.4
		c0.9,1.1,2.1,1.6,3.5,1.6c1.1,0,2-0.3,2.8-1C110.2,159.7,110.8,158.6,111.1,157.1z"/>
	<path class="st0" d="M121.3,154.4l-3.5-0.6c0.4-1.4,1.1-2.4,2-3.1s2.4-1,4.2-1c1.7,0,3,0.2,3.8,0.6c0.8,0.4,1.4,0.9,1.8,1.5
		c0.3,0.6,0.5,1.8,0.5,3.4l0,4.5c0,1.3,0.1,2.2,0.2,2.8c0.1,0.6,0.4,1.2,0.7,1.9h-3.8c-0.1-0.3-0.2-0.6-0.4-1.1
		c-0.1-0.2-0.1-0.4-0.1-0.4c-0.7,0.6-1.4,1.1-2.1,1.4c-0.7,0.3-1.5,0.5-2.4,0.5c-1.5,0-2.7-0.4-3.5-1.2c-0.9-0.8-1.3-1.8-1.3-3.1
		c0-0.8,0.2-1.5,0.6-2.2s0.9-1.1,1.6-1.5c0.7-0.3,1.7-0.6,3-0.9c1.8-0.3,3-0.6,3.7-0.9v-0.4c0-0.7-0.2-1.3-0.5-1.6
		c-0.4-0.3-1-0.5-2.1-0.5c-0.7,0-1.2,0.1-1.6,0.4C121.8,153.3,121.5,153.7,121.3,154.4z M126.4,157.5c-0.5,0.2-1.3,0.4-2.3,0.6
		c-1.1,0.2-1.8,0.4-2.1,0.7c-0.5,0.4-0.7,0.8-0.7,1.3c0,0.5,0.2,1,0.6,1.4c0.4,0.4,0.9,0.6,1.5,0.6c0.7,0,1.3-0.2,2-0.7
		c0.5-0.3,0.8-0.8,0.9-1.3c0.1-0.3,0.2-0.9,0.2-1.9V157.5z"/>
	<path class="st0" d="M137.6,164.5h-3.8V150h3.6v2.1c0.6-1,1.2-1.6,1.6-1.9s1-0.5,1.7-0.5c0.9,0,1.7,0.2,2.5,0.7l-1.2,3.3
		c-0.6-0.4-1.2-0.6-1.8-0.6c-0.5,0-1,0.1-1.4,0.4s-0.7,0.8-0.9,1.6c-0.2,0.8-0.3,2.4-0.3,4.8V164.5z"/>
	<path class="st0" d="M151.4,150v3h-2.6v5.8c0,1.2,0,1.9,0.1,2.1c0,0.2,0.2,0.4,0.3,0.5s0.4,0.2,0.6,0.2c0.4,0,0.9-0.1,1.5-0.4
		l0.3,3c-0.9,0.4-1.9,0.6-3,0.6c-0.7,0-1.3-0.1-1.9-0.3c-0.6-0.2-1-0.5-1.2-0.9c-0.3-0.4-0.4-0.9-0.5-1.5c-0.1-0.4-0.1-1.3-0.1-2.7
		v-6.3h-1.8v-3h1.8v-2.9l3.8-2.2v5.1H151.4z"/>
	<path class="st0" d="M139.8,53.7c-0.9-1-2.1-1.5-3.4-1.5H74l-0.9-5.3c-0.4-2.2-2.2-3.8-4.4-3.8H58.6c-2.5,0-4.5,2-4.5,4.5
		c0,2.5,2,4.5,4.5,4.5h6.3l8.4,50.3c0,0.2,0.1,0.4,0.2,0.6c0.1,0.2,0.1,0.5,0.2,0.7c0.2,0.3,0.4,0.6,0.6,0.8
		c0.1,0.2,0.3,0.3,0.4,0.5c0.3,0.2,0.6,0.4,0.9,0.6c0.2,0.1,0.3,0.2,0.5,0.3c0.5,0.2,1.1,0.3,1.7,0.3h49.6c2.5,0,4.5-2,4.5-4.5
		c0-2.5-2-4.5-4.5-4.5H81.6l-0.7-4.5h51c2.2,0,4.1-1.7,4.5-3.9l4.5-31.6C141,56,140.6,54.7,139.8,53.7L139.8,53.7z M131.1,61.1
		l-1.3,9h-16.1v-9H131.1z M109.3,61.1v9H95.8v-9H109.3z M109.3,74.7v9H95.8v-9H109.3z M91.3,61.1v9H77.7c-0.2,0-0.4,0.1-0.7,0.1
		l-1.5-9.2H91.3z M77.8,74.7h13.5v9h-12L77.8,74.7z M113.8,83.7v-9h15.4l-1.3,9H113.8z"/>
	<path class="st0" d="M91.3,117.5c0,3.7-3,6.8-6.8,6.8c-3.7,0-6.8-3-6.8-6.8c0-3.7,3-6.8,6.8-6.8C88.2,110.8,91.3,113.8,91.3,117.5
		L91.3,117.5z"/>
	<path class="st0" d="M131.9,117.5c0,3.7-3,6.8-6.8,6.8c-3.7,0-6.8-3-6.8-6.8c0-3.7,3-6.8,6.8-6.8
		C128.8,110.8,131.9,113.8,131.9,117.5L131.9,117.5z"/>
</g>
</svg>
