<?xml version="1.0" encoding="utf-8"?>
<!-- Generator: Adobe Illustrator 18.0.0, SVG Export Plug-In . SVG Version: 6.00 Build 0)  -->
<!DOCTYPE svg PUBLIC "-//W3C//DTD SVG 1.1//EN" "http://www.w3.org/Graphics/SVG/1.1/DTD/svg11.dtd">
<svg version="1.1" id="Layer_1" xmlns="http://www.w3.org/2000/svg" xmlns:xlink="http://www.w3.org/1999/xlink" x="0px" y="0px"
	 viewBox="0 0 200 200" style="enable-background:new 0 0 200 200;" xml:space="preserve">
<style type="text/css">
	.st0{fill:#FFFFFF;}
	.st1{fill:#26BDBD;}
</style>
<g id="tab-icon">
</g>
<path class="st0" d="M144.1,72l-1-2.9c-0.6-1.6-2.3-3-4-3h-3.7c-2.7-7.7-6.1-17-7.1-19.2c-1.5-3.4-6.4-4.9-9.1-5.7
	c0,0-4.5-1.7-19.3-1.7c-14.9,0-19.3,1.7-19.3,1.7c-3.1,1-7.5,2.5-9.2,5.8c-0.8,1.5-4.2,11.1-7,19.1h-3.6c-1.6,0-3.4,1.3-4,3l-1,2.9
	c-0.6,1.6,0.3,3,1.9,3h3.5c-0.5,1.3-0.7,2.1-0.7,2.1c-0.3,0.5-0.5,2.7-0.5,3.3v26.9c0,1.7,1.4,3.1,3.1,3.1h11.5
	c1.7,0,3.1-1.4,3.1-3.1v-5.7h44.3v5.7c0,1.7,1.4,3.1,3.1,3.1h11.5c1.7,0,3.1-1.4,3.1-3.1V80.4c0-0.6-0.2-2.8-0.5-3.3
	c0,0-0.3-0.8-0.7-2.1h3.6C143.8,75,144.7,73.7,144.1,72L144.1,72z M77.8,88.5h-4.7c-4.2,0-8.5-0.6-8.5-3.3V82c0-3.2,1.8-3.3,3.8-3.3
	c1.9,0,5.7,1.6,8.2,2.8c2.7,1.2,5.8,2.2,5.8,4.3C82.4,87.6,81.4,88.5,77.8,88.5L77.8,88.5z M71.2,67.3c2.3-9.7,4.9-15.1,5.4-16.7
	c0.4-1.1,0.9-4.5,23.4-4.5c22.5,0,23,3.9,23.1,4c0.7,2.1,3.4,8.3,5.6,17.2c0,0-9.5,3.2-28.7,3.2C80.8,70.6,71.2,67.3,71.2,67.3
	L71.2,67.3z M117.6,85.8c0-2,3.1-3.1,5.8-4.3c2.5-1.1,6.3-2.8,8.2-2.8c2,0,3.8,0.1,3.8,3.3v3.3h0c0,2.7-4.2,3.3-8.5,3.3h-4.7
	C118.6,88.5,117.6,87.6,117.6,85.8L117.6,85.8z"/>
<g>
	<g>
		<path class="st0" d="M54,147.5v-19.3h6.3c2.4,0,3.9,0.1,4.6,0.3c1.1,0.3,2,0.9,2.8,1.9c0.7,1,1.1,2.2,1.1,3.8c0,1.2-0.2,2.2-0.6,3
			s-1,1.4-1.6,1.9c-0.7,0.5-1.3,0.8-2,0.9c-0.9,0.2-2.3,0.3-4,0.3h-2.5v7.3H54z M57.9,131.4v5.5H60c1.5,0,2.6-0.1,3.1-0.3
			c0.5-0.2,0.9-0.5,1.2-0.9c0.3-0.4,0.4-0.9,0.4-1.5c0-0.7-0.2-1.3-0.6-1.7c-0.4-0.5-0.9-0.7-1.6-0.9c-0.5-0.1-1.4-0.1-2.8-0.1H57.9
			z"/>
		<path class="st0" d="M72,131.6v-3.4h3.7v3.4H72z M72,147.5v-14h3.7v14H72z"/>
		<path class="st0" d="M91.7,137.6l-3.6,0.7c-0.1-0.7-0.4-1.3-0.8-1.6c-0.4-0.4-1-0.6-1.7-0.6c-0.9,0-1.7,0.3-2.2,1
			c-0.5,0.6-0.8,1.7-0.8,3.2c0,1.7,0.3,2.8,0.8,3.5s1.3,1,2.2,1c0.7,0,1.3-0.2,1.7-0.6c0.4-0.4,0.8-1.1,0.9-2.1l3.6,0.6
			c-0.4,1.7-1.1,2.9-2.2,3.8c-1.1,0.9-2.5,1.3-4.3,1.3c-2,0-3.7-0.6-4.9-1.9s-1.8-3.1-1.8-5.4c0-2.3,0.6-4.1,1.8-5.4
			c1.2-1.3,2.9-1.9,5-1.9c1.7,0,3.1,0.4,4.1,1.1C90.5,135,91.2,136.1,91.7,137.6z"/>
		<path class="st0" d="M94.3,147.5v-19.3H98v10.2l4.3-4.9h4.6l-4.8,5.1l5.1,8.9h-4l-3.5-6.3L98,143v4.5H94.3z"/>
		<path class="st0" d="M126.1,147.5v-2.1c-0.5,0.7-1.2,1.3-2,1.8s-1.7,0.6-2.6,0.6c-0.9,0-1.8-0.2-2.5-0.6s-1.3-1-1.6-1.7
			c-0.3-0.7-0.5-1.8-0.5-3.1v-8.8h3.7v6.4c0,2,0.1,3.2,0.2,3.6c0.1,0.4,0.4,0.8,0.7,1.1c0.4,0.3,0.8,0.4,1.4,0.4
			c0.6,0,1.2-0.2,1.7-0.5c0.5-0.3,0.8-0.8,1-1.3s0.3-1.8,0.3-3.8v-5.9h3.7v14H126.1z"/>
		<path class="st0" d="M133.3,133.5h3.4v2.1c0.4-0.7,1.1-1.3,1.8-1.7c0.8-0.4,1.6-0.7,2.5-0.7c1.6,0,3,0.6,4.1,1.9
			c1.1,1.3,1.7,3,1.7,5.3c0,2.3-0.6,4.1-1.7,5.4c-1.1,1.3-2.5,1.9-4.1,1.9c-0.8,0-1.5-0.2-2.1-0.5c-0.6-0.3-1.3-0.8-2-1.6v7h-3.7
			V133.5z M137,140.2c0,1.6,0.3,2.7,0.9,3.5c0.6,0.8,1.4,1.1,2.3,1.1c0.9,0,1.6-0.3,2.1-1c0.6-0.7,0.9-1.8,0.9-3.4
			c0-1.5-0.3-2.6-0.9-3.3s-1.3-1.1-2.2-1.1c-0.9,0-1.7,0.3-2.3,1C137.3,137.8,137,138.9,137,140.2z"/>
		<path class="st0" d="M54.6,173.5l-2.2,2.9c-1.1-0.5-2.2-1.3-3.2-2.2c-0.8,0.7-1.6,1.2-2.5,1.6c-0.9,0.3-1.9,0.5-3.1,0.5
			c-2.4,0-4.2-0.7-5.4-2c-0.9-1-1.4-2.2-1.4-3.6c0-1.2,0.4-2.4,1.1-3.3s1.8-1.8,3.3-2.6c-0.7-0.8-1.2-1.5-1.5-2.2
			c-0.3-0.7-0.5-1.4-0.5-2c0-1.2,0.5-2.2,1.4-3s2.3-1.2,4-1.2c1.7,0,3,0.4,3.9,1.3c0.9,0.9,1.4,1.9,1.4,3.1c0,0.8-0.2,1.5-0.7,2.2
			s-1.4,1.5-2.8,2.4l2.7,3.5c0.3-0.6,0.6-1.3,0.8-2.2l3.3,0.8c-0.3,1.2-0.6,2.1-0.9,2.6c-0.2,0.5-0.5,1-0.8,1.4
			c0.4,0.4,0.9,0.8,1.6,1.3C53.8,173,54.3,173.3,54.6,173.5z M43.1,167c-0.9,0.4-1.5,0.9-1.9,1.6c-0.4,0.6-0.6,1.2-0.6,1.9
			c0,0.8,0.3,1.5,0.8,2s1.2,0.8,2.1,0.8c0.6,0,1.1-0.1,1.7-0.3c0.5-0.2,1.1-0.6,1.8-1.1L43.1,167z M44.5,163l1-0.8
			c0.7-0.6,1.1-1.1,1.1-1.7c0-0.5-0.2-0.9-0.5-1.2c-0.4-0.3-0.8-0.5-1.4-0.5c-0.6,0-1,0.1-1.4,0.4s-0.5,0.6-0.5,1
			c0,0.5,0.3,1,0.8,1.7L44.5,163z"/>
		<path class="st0" d="M77.3,175.8h-3.4v-2.1c-0.6,0.8-1.2,1.4-2,1.8c-0.8,0.4-1.6,0.6-2.4,0.6c-1.6,0-3-0.6-4.1-1.9
			c-1.1-1.3-1.7-3.1-1.7-5.4c0-2.4,0.6-4.2,1.7-5.4c1.1-1.2,2.5-1.8,4.2-1.8c1.6,0,2.9,0.6,4.1,1.9v-7h3.7V175.8z M67.4,168.5
			c0,1.5,0.2,2.6,0.6,3.2c0.6,1,1.4,1.4,2.5,1.4c0.9,0,1.6-0.4,2.2-1.1c0.6-0.7,0.9-1.8,0.9-3.2c0-1.6-0.3-2.8-0.9-3.5
			c-0.6-0.7-1.3-1.1-2.2-1.1c-0.9,0-1.6,0.3-2.2,1C67.7,166.1,67.4,167.1,67.4,168.5z"/>
		<path class="st0" d="M89,171.4l3.7,0.6c-0.5,1.4-1.2,2.4-2.2,3.1c-1,0.7-2.3,1.1-3.8,1.1c-2.4,0-4.2-0.8-5.4-2.4
			c-0.9-1.3-1.4-2.9-1.4-4.8c0-2.3,0.6-4.1,1.8-5.4c1.2-1.3,2.7-2,4.6-2c2.1,0,3.7,0.7,4.9,2.1c1.2,1.4,1.8,3.5,1.7,6.3h-9.3
			c0,1.1,0.3,2,0.9,2.6c0.6,0.6,1.3,0.9,2.1,0.9c0.6,0,1.1-0.2,1.5-0.5C88.5,172.6,88.8,172.1,89,171.4z M89.2,167.6
			c0-1.1-0.3-1.9-0.8-2.4s-1.2-0.8-1.9-0.8c-0.8,0-1.5,0.3-2,0.9c-0.5,0.6-0.8,1.4-0.8,2.4H89.2z"/>
		<path class="st0" d="M95.9,175.8v-19.3h3.7v19.3H95.9z"/>
		<path class="st0" d="M103.4,159.9v-3.4h3.7v3.4H103.4z M103.4,175.8v-14h3.7v14H103.4z"/>
		<path class="st0" d="M114.7,175.8l-5.6-14h3.9l2.6,7.1l0.8,2.4c0.2-0.6,0.3-1,0.4-1.2c0.1-0.4,0.3-0.8,0.4-1.2l2.7-7.1h3.8
			l-5.6,14H114.7z"/>
		<path class="st0" d="M134,171.4l3.7,0.6c-0.5,1.4-1.2,2.4-2.2,3.1c-1,0.7-2.3,1.1-3.8,1.1c-2.4,0-4.2-0.8-5.4-2.4
			c-0.9-1.3-1.4-2.9-1.4-4.8c0-2.3,0.6-4.1,1.8-5.4c1.2-1.3,2.7-2,4.6-2c2.1,0,3.7,0.7,4.9,2.1c1.2,1.4,1.8,3.5,1.7,6.3h-9.3
			c0,1.1,0.3,2,0.9,2.6c0.6,0.6,1.3,0.9,2.1,0.9c0.6,0,1.1-0.2,1.5-0.5C133.5,172.6,133.8,172.1,134,171.4z M134.2,167.6
			c0-1.1-0.3-1.9-0.8-2.4s-1.2-0.8-1.9-0.8c-0.8,0-1.5,0.3-2,0.9c-0.5,0.6-0.8,1.4-0.8,2.4H134.2z"/>
		<path class="st0" d="M144.4,175.8h-3.7v-14h3.4v2c0.6-0.9,1.1-1.6,1.6-1.9c0.5-0.3,1-0.4,1.6-0.4c0.8,0,1.7,0.2,2.4,0.7l-1.1,3.2
			c-0.6-0.4-1.2-0.6-1.7-0.6c-0.5,0-1,0.1-1.3,0.4c-0.4,0.3-0.6,0.8-0.8,1.5s-0.3,2.3-0.3,4.7V175.8z"/>
		<path class="st0" d="M149.6,161.8h3.9l3.3,9.9l3.3-9.9h3.8l-4.9,13.5l-0.9,2.4c-0.3,0.8-0.6,1.4-0.9,1.9s-0.6,0.8-1,1
			s-0.9,0.5-1.4,0.6c-0.6,0.1-1.2,0.2-1.9,0.2c-0.7,0-1.4-0.1-2.1-0.2l-0.3-2.9c0.6,0.1,1.1,0.2,1.6,0.2c0.9,0,1.5-0.3,1.9-0.8
			c0.4-0.5,0.7-1.1,0.9-1.9L149.6,161.8z"/>
	</g>
</g>
</svg>
