<?xml version="1.0" encoding="utf-8"?>
<!-- Generator: Adobe Illustrator 18.0.0, SVG Export Plug-In . SVG Version: 6.00 Build 0)  -->
<!DOCTYPE svg PUBLIC "-//W3C//DTD SVG 1.1//EN" "http://www.w3.org/Graphics/SVG/1.1/DTD/svg11.dtd">
<svg version="1.1" id="Layer_1" xmlns="http://www.w3.org/2000/svg" xmlns:xlink="http://www.w3.org/1999/xlink" x="0px" y="0px"
	 viewBox="0 0 200 200" enable-background="new 0 0 200 200" xml:space="preserve">
<symbol  id="tab-icon_1_" viewBox="-49.9 -63.6 99.9 127.2">
	<path fill="#414042" d="M-49.9-57.7v19.9h6l3.6-13.6l3.6,13.6h6v-19.9h-3.7V-42l-4-15.7h-3.9L-46.2-42v-15.7H-49.9z"/>
	<path fill="#414042" d="M-28.5-43.3h4.1l3.5-10.3l3.4,10.3h4l-5.1-13.9l-0.9-2.5c-0.3-0.8-0.7-1.5-1-1.9s-0.7-0.8-1-1.1
		c-0.4-0.3-0.9-0.5-1.5-0.6c-0.6-0.2-1.2-0.2-2-0.2c-0.7,0-1.5,0.1-2.2,0.2l-0.3,3c0.6-0.1,1.1-0.2,1.6-0.2c0.9,0,1.5,0.3,2,0.8
		c0.4,0.5,0.8,1.2,1,2L-28.5-43.3z"/>
	<path fill="#414042" d="M9.3-50.4l3.9-1.2c-0.6-2.2-1.6-3.8-3-4.9s-3.2-1.6-5.3-1.6c-2.6,0-4.8,0.9-6.5,2.7
		c-1.7,1.8-2.6,4.3-2.6,7.4c0,3.3,0.9,5.9,2.6,7.7s4,2.8,6.8,2.8c2.4,0,4.4-0.7,5.9-2.2c0.9-0.9,1.6-2.1,2-3.7l-4-1
		c-0.2,1-0.7,1.9-1.5,2.4S6.1-40.9,5-40.9c-1.5,0-2.7-0.5-3.6-1.6C0.5-43.6,0-45.3,0-47.6C0-50.2,0.5-52,1.4-53
		c0.9-1.1,2.1-1.6,3.5-1.6c1.1,0,2,0.3,2.8,1C8.4-52.9,9-51.9,9.3-50.4z"/>
	<path fill="#414042" d="M19.5-47.7L16-47.1c0.4,1.4,1.1,2.4,2,3.1s2.4,1,4.2,1c1.7,0,3-0.2,3.8-0.6c0.8-0.4,1.4-0.9,1.8-1.5
		c0.3-0.6,0.5-1.8,0.5-3.4l0-4.5c0-1.3,0.1-2.2,0.2-2.8c0.1-0.6,0.4-1.2,0.7-1.9h-3.8c-0.1,0.3-0.2,0.6-0.4,1.1
		c-0.1,0.2-0.1,0.4-0.1,0.4c-0.7-0.6-1.4-1.1-2.1-1.4c-0.7-0.3-1.5-0.5-2.4-0.5c-1.5,0-2.7,0.4-3.5,1.2c-0.9,0.8-1.3,1.8-1.3,3.1
		c0,0.8,0.2,1.5,0.6,2.2s0.9,1.1,1.6,1.5c0.7,0.3,1.7,0.6,3,0.9c1.8,0.3,3,0.6,3.7,0.9v0.4c0,0.7-0.2,1.3-0.5,1.6
		c-0.4,0.3-1,0.5-2.1,0.5c-0.7,0-1.2-0.1-1.6-0.4C20.1-46.6,19.8-47,19.5-47.7z M24.6-50.8c-0.5-0.2-1.3-0.4-2.3-0.6
		c-1.1-0.2-1.8-0.4-2.1-0.7c-0.5-0.4-0.7-0.8-0.7-1.3c0-0.5,0.2-1,0.6-1.4c0.4-0.4,0.9-0.6,1.5-0.6c0.7,0,1.3,0.2,2,0.7
		c0.5,0.3,0.8,0.8,0.9,1.3c0.1,0.3,0.2,0.9,0.2,1.9V-50.8z"/>
	<path fill="#414042" d="M35.8-57.7H32v14.5h3.6v-2.1c0.6,1,1.2,1.6,1.6,1.9s1,0.5,1.7,0.5c0.9,0,1.7-0.2,2.5-0.7L40.2-47
		c-0.6,0.4-1.2,0.6-1.8,0.6c-0.5,0-1-0.1-1.4-0.4s-0.7-0.8-0.9-1.6c-0.2-0.8-0.3-2.4-0.3-4.8V-57.7z"/>
	<path fill="#414042" d="M49.6-43.3v-3H47v-5.8c0-1.2,0-1.9,0.1-2.1c0-0.2,0.2-0.4,0.3-0.5s0.4-0.2,0.6-0.2c0.4,0,0.9,0.1,1.5,0.4
		l0.3-3c-0.9-0.4-1.9-0.6-3-0.6c-0.7,0-1.3,0.1-1.9,0.3c-0.6,0.2-1,0.5-1.2,0.9c-0.3,0.4-0.4,0.9-0.5,1.5c-0.1,0.4-0.1,1.3-0.1,2.7
		v6.3h-1.8v3h1.8v2.9l3.8,2.2v-5.1H49.6z"/>
	<path fill="#414142" d="M38,53c-0.9,1-2.1,1.5-3.4,1.5h-62.3l-0.9,5.3c-0.4,2.2-2.2,3.8-4.4,3.8h-10.2c-2.5,0-4.5-2-4.5-4.5
		c0-2.5,2-4.5,4.5-4.5h6.3l8.4-50.3c0-0.2,0.1-0.4,0.2-0.6c0.1-0.2,0.1-0.5,0.2-0.7c0.2-0.3,0.4-0.6,0.6-0.8
		c0.1-0.2,0.3-0.3,0.4-0.5c0.3-0.2,0.6-0.4,0.9-0.6c0.2-0.1,0.3-0.2,0.5-0.3c0.5-0.2,1.1-0.3,1.7-0.3h49.6c2.5,0,4.5,2,4.5,4.5
		c0,2.5-2,4.5-4.5,4.5h-45.8L-21,14h51c2.2,0,4.1,1.7,4.5,3.9L39,49.4C39.2,50.7,38.8,52,38,53L38,53z M29.4,45.6l-1.3-9H12v9H29.4z
		 M7.5,45.6v-9H-6v9H7.5z M7.5,32v-9H-6v9H7.5z M-10.5,45.6v-9h-13.5c-0.2,0-0.4-0.1-0.7-0.1l-1.5,9.2H-10.5z M-24,32h13.5v-9h-12
		L-24,32z M12,23v9h15.4l-1.3-9H12z"/>
	<path fill="#414142" d="M-10.5-10.8c0-3.7-3-6.8-6.8-6.8c-3.7,0-6.8,3-6.8,6.8c0,3.7,3,6.8,6.8,6.8C-13.6-4-10.5-7.1-10.5-10.8
		L-10.5-10.8z"/>
	<path fill="#414142" d="M30.1-10.8c0-3.7-3-6.8-6.8-6.8c-3.7,0-6.8,3-6.8,6.8c0,3.7,3,6.8,6.8,6.8C27-4,30.1-7.1,30.1-10.8
		L30.1-10.8z"/>
</symbol>
<use xlink:href="#tab-icon_1_"  width="99.9" height="127.2" id="tab-icon" x="-49.9" y="-63.6" transform="matrix(1 0 0 -1 101.7847 106.7115)" overflow="visible"/>
<g>
	<rect x="317.5" y="329.9" fill="#26BDBD" width="96.7" height="93.2"/>
	<text transform="matrix(1 0 0 1 340.9485 395.9826)"><tspan x="0" y="0" fill="#FFFFFF" font-family="'Arial-BoldMT'" font-size="14">Pick up</tspan><tspan x="-8.6" y="16.8" fill="#FFFFFF" font-family="'Arial-BoldMT'" font-size="14">&amp; delivery</tspan></text>
	<path fill="#FFFFFF" d="M390.5,356.6l-0.5-1.5c-0.3-0.9-1.2-1.5-2.1-1.5H386c-1.4-4-3.2-8.9-3.7-10.1c-0.8-1.8-3.3-2.6-4.7-3
		c0,0-2.3-0.9-10.1-0.9c-7.8,0-10.1,0.9-10.1,0.9c-1.6,0.5-3.9,1.3-4.8,3c-0.4,0.8-2.2,5.8-3.7,10h-1.9c-0.9,0-1.8,0.7-2.1,1.5
		l-0.5,1.5c-0.3,0.9,0.2,1.5,1,1.5h1.9c-0.2,0.7-0.4,1.1-0.4,1.1c-0.1,0.3-0.3,1.4-0.3,1.7v14.1c0,0.9,0.7,1.6,1.6,1.6h6
		c0.9,0,1.6-0.7,1.6-1.6v-3H379v3c0,0.9,0.7,1.6,1.6,1.6h6c0.9,0,1.6-0.7,1.6-1.6V361c0-0.3-0.1-1.5-0.3-1.7c0,0-0.2-0.4-0.4-1.1
		h1.9C390.3,358.2,390.8,357.5,390.5,356.6L390.5,356.6z M355.8,365.2h-2.5c-2.2,0-4.4-0.3-4.4-1.7v-1.7c0-1.7,1-1.7,2-1.7
		c1,0,3,0.9,4.3,1.4c1.4,0.6,3,1.2,3,2.2C358.2,364.8,357.6,365.2,355.8,365.2L355.8,365.2z M352.3,354.2c1.2-5.1,2.5-7.9,2.8-8.7
		c0.2-0.6,0.5-2.4,12.3-2.4c11.8,0,12.1,2,12.1,2.1c0.4,1.1,1.8,4.4,3,9c0,0-5,1.7-15.1,1.7C357.3,355.8,352.3,354.2,352.3,354.2
		L352.3,354.2z M376.6,363.8c0-1.1,1.6-1.6,3-2.2c1.3-0.6,3.3-1.4,4.3-1.4c1,0,2,0.1,2,1.7v1.7h0c0,1.4-2.2,1.7-4.4,1.7H379
		C377.1,365.2,376.6,364.8,376.6,363.8L376.6,363.8z"/>
</g>
<text transform="matrix(1 0 0 1 283.9559 117.5468)" fill="#414142" font-family="'FontAwesome'" font-size="99.3125"></text>
<path fill="#414142" d="M584.1,72l-1-2.9c-0.6-1.6-2.3-3-4-3h-3.7c-2.7-7.7-6.1-17-7.1-19.2c-1.5-3.4-6.4-4.9-9.1-5.7
	c0,0-4.5-1.7-19.3-1.7c-14.9,0-19.3,1.7-19.3,1.7c-3.1,1-7.5,2.5-9.2,5.8c-0.8,1.5-4.2,11.1-7,19.1h-3.6c-1.6,0-3.4,1.3-4,3l-1,2.9
	c-0.6,1.6,0.3,3,1.9,3h3.5c-0.5,1.3-0.7,2.1-0.7,2.1c-0.3,0.5-0.5,2.7-0.5,3.3v26.9c0,1.7,1.4,3.1,3.1,3.1h11.5
	c1.7,0,3.1-1.4,3.1-3.1v-5.7h44.3v5.7c0,1.7,1.4,3.1,3.1,3.1h11.5c1.7,0,3.1-1.4,3.1-3.1V80.4c0-0.6-0.2-2.8-0.5-3.3
	c0,0-0.3-0.8-0.7-2.1h3.6C583.8,75,584.7,73.7,584.1,72L584.1,72z M517.8,88.5h-4.7c-4.2,0-8.5-0.6-8.5-3.3V82
	c0-3.2,1.8-3.3,3.8-3.3c1.9,0,5.7,1.6,8.2,2.8c2.7,1.2,5.8,2.2,5.8,4.3C522.4,87.6,521.4,88.5,517.8,88.5L517.8,88.5z M511.2,67.3
	c2.3-9.7,4.9-15.1,5.4-16.7c0.4-1.1,0.9-4.5,23.4-4.5c22.5,0,23,3.9,23.1,4c0.7,2.1,3.4,8.3,5.6,17.2c0,0-9.5,3.2-28.7,3.2
	C520.8,70.6,511.2,67.3,511.2,67.3L511.2,67.3z M557.6,85.8c0-2,3.1-3.1,5.8-4.3c2.5-1.1,6.3-2.8,8.2-2.8c2,0,3.8,0.1,3.8,3.3v3.3h0
	c0,2.7-4.2,3.3-8.5,3.3h-4.7C558.6,88.5,557.6,87.6,557.6,85.8L557.6,85.8z"/>
<g>
	<g>
		<path fill="#414142" d="M265.4,157.4l3.8,1.2c-0.6,2.1-1.5,3.7-2.9,4.7c-1.3,1-3.1,1.5-5.1,1.5c-2.6,0-4.7-0.9-6.3-2.6
			c-1.7-1.8-2.5-4.1-2.5-7.2c0-3.2,0.8-5.7,2.5-7.5c1.7-1.8,3.8-2.7,6.5-2.7c2.4,0,4.3,0.7,5.8,2.1c0.9,0.8,1.5,2,2,3.6l-3.9,0.9
			c-0.2-1-0.7-1.8-1.4-2.4c-0.7-0.6-1.6-0.9-2.6-0.9c-1.4,0-2.6,0.5-3.5,1.5c-0.9,1-1.3,2.7-1.3,5c0,2.4,0.4,4.2,1.3,5.2
			c0.9,1,2,1.6,3.4,1.6c1,0,1.9-0.3,2.7-1S265.1,158.8,265.4,157.4z"/>
		<path fill="#414142" d="M281.7,164.5v-2.1c-0.5,0.7-1.2,1.3-2,1.8c-0.8,0.4-1.7,0.6-2.6,0.6c-0.9,0-1.8-0.2-2.5-0.6
			c-0.7-0.4-1.3-1-1.6-1.7c-0.3-0.7-0.5-1.8-0.5-3.1v-8.8h3.7v6.4c0,2,0.1,3.2,0.2,3.6c0.1,0.4,0.4,0.8,0.7,1.1
			c0.4,0.3,0.8,0.4,1.4,0.4c0.6,0,1.2-0.2,1.7-0.5s0.8-0.8,1-1.3c0.2-0.5,0.3-1.8,0.3-3.8v-5.9h3.7v14H281.7z"/>
		<path fill="#414142" d="M287.7,160.5l3.7-0.6c0.2,0.7,0.5,1.3,1,1.6c0.5,0.4,1.2,0.6,2,0.6c1,0,1.7-0.2,2.2-0.5
			c0.3-0.2,0.5-0.6,0.5-1c0-0.3-0.1-0.5-0.3-0.7c-0.2-0.2-0.6-0.3-1.2-0.5c-3-0.7-4.9-1.3-5.7-1.8c-1.1-0.8-1.7-1.8-1.7-3.1
			c0-1.2,0.5-2.2,1.4-3.1s2.4-1.2,4.5-1.2c1.9,0,3.3,0.3,4.3,0.9c0.9,0.6,1.6,1.5,1.9,2.8l-3.5,0.6c-0.1-0.5-0.4-1-0.8-1.3
			c-0.4-0.3-1-0.4-1.8-0.4c-1,0-1.7,0.1-2.1,0.4c-0.3,0.2-0.4,0.4-0.4,0.8c0,0.3,0.1,0.5,0.4,0.7c0.3,0.2,1.5,0.6,3.5,1
			c2,0.4,3.3,1,4.1,1.6c0.8,0.7,1.2,1.6,1.2,2.8c0,1.3-0.5,2.4-1.6,3.3c-1.1,0.9-2.7,1.4-4.8,1.4c-1.9,0-3.4-0.4-4.5-1.2
			S288,161.8,287.7,160.5z"/>
		<path fill="#414142" d="M310.4,150.5v2.9h-2.5v5.6c0,1.1,0,1.8,0.1,2c0,0.2,0.2,0.3,0.3,0.5s0.4,0.2,0.6,0.2
			c0.3,0,0.8-0.1,1.5-0.4l0.3,2.9c-0.9,0.4-1.8,0.6-2.9,0.6c-0.7,0-1.3-0.1-1.8-0.3s-0.9-0.5-1.2-0.9s-0.4-0.8-0.5-1.4
			c-0.1-0.4-0.1-1.3-0.1-2.6v-6.1h-1.7v-2.9h1.7v-2.8l3.7-2.2v4.9H310.4z"/>
		<path fill="#414142" d="M312.1,157.3c0-1.2,0.3-2.4,0.9-3.6s1.5-2,2.6-2.6s2.4-0.9,3.7-0.9c2.1,0,3.8,0.7,5.2,2.1
			c1.4,1.4,2,3.1,2,5.2c0,2.1-0.7,3.9-2,5.3c-1.4,1.4-3.1,2.1-5.2,2.1c-1.3,0-2.5-0.3-3.7-0.9s-2-1.4-2.7-2.5
			S312.1,158.9,312.1,157.3z M315.9,157.5c0,1.4,0.3,2.4,1,3.2s1.5,1.1,2.4,1.1s1.8-0.4,2.4-1.1c0.7-0.7,1-1.8,1-3.2
			c0-1.4-0.3-2.4-1-3.2c-0.7-0.7-1.5-1.1-2.4-1.1s-1.8,0.4-2.4,1.1S315.9,156.1,315.9,157.5z"/>
		<path fill="#414142" d="M329.1,150.5h3.4v1.9c1.2-1.5,2.7-2.2,4.4-2.2c0.9,0,1.7,0.2,2.3,0.6c0.7,0.4,1.2,0.9,1.6,1.7
			c0.6-0.7,1.3-1.3,2-1.7c0.7-0.4,1.5-0.6,2.3-0.6c1,0,1.9,0.2,2.6,0.6s1.2,1,1.6,1.8c0.3,0.6,0.4,1.6,0.4,2.9v8.9H346v-8
			c0-1.4-0.1-2.3-0.4-2.7c-0.3-0.5-0.9-0.8-1.6-0.8c-0.5,0-1,0.2-1.5,0.5c-0.5,0.3-0.8,0.8-1,1.4c-0.2,0.6-0.3,1.6-0.3,2.9v6.7h-3.7
			v-7.7c0-1.4-0.1-2.2-0.2-2.6c-0.1-0.4-0.3-0.7-0.6-0.9c-0.3-0.2-0.7-0.3-1.1-0.3c-0.6,0-1.1,0.2-1.5,0.5c-0.5,0.3-0.8,0.8-1,1.3
			c-0.2,0.6-0.3,1.5-0.3,2.9v6.8h-3.7V150.5z"/>
		<path fill="#414142" d="M353.4,148.6v-3.4h3.7v3.4H353.4z M353.4,164.5v-14h3.7v14H353.4z"/>
		<path fill="#414142" d="M359.6,160.5l3.7-0.6c0.2,0.7,0.5,1.3,1,1.6c0.5,0.4,1.2,0.6,2,0.6c1,0,1.7-0.2,2.2-0.5
			c0.3-0.2,0.5-0.6,0.5-1c0-0.3-0.1-0.5-0.3-0.7c-0.2-0.2-0.6-0.3-1.2-0.5c-3-0.7-4.9-1.3-5.7-1.8c-1.1-0.8-1.7-1.8-1.7-3.1
			c0-1.2,0.5-2.2,1.4-3.1c1-0.8,2.4-1.2,4.5-1.2c1.9,0,3.3,0.3,4.3,0.9c0.9,0.6,1.6,1.5,1.9,2.8l-3.5,0.6c-0.1-0.5-0.4-1-0.8-1.3
			c-0.4-0.3-1-0.4-1.8-0.4c-1,0-1.7,0.1-2.1,0.4c-0.3,0.2-0.4,0.4-0.4,0.8c0,0.3,0.1,0.5,0.4,0.7c0.3,0.2,1.5,0.6,3.5,1
			c2,0.4,3.3,1,4.1,1.6c0.8,0.7,1.2,1.6,1.2,2.8c0,1.3-0.5,2.4-1.6,3.3c-1.1,0.9-2.7,1.4-4.8,1.4c-1.9,0-3.4-0.4-4.5-1.2
			S359.9,161.8,359.6,160.5z"/>
		<path fill="#414142" d="M384,160l3.7,0.6c-0.5,1.4-1.2,2.4-2.2,3.1c-1,0.7-2.3,1.1-3.8,1.1c-2.4,0-4.2-0.8-5.4-2.4
			c-0.9-1.3-1.4-2.9-1.4-4.8c0-2.3,0.6-4.1,1.8-5.4c1.2-1.3,2.7-2,4.6-2c2.1,0,3.7,0.7,4.9,2.1c1.2,1.4,1.8,3.5,1.7,6.3h-9.3
			c0,1.1,0.3,2,0.9,2.6c0.6,0.6,1.3,0.9,2.1,0.9c0.6,0,1.1-0.2,1.5-0.5C383.5,161.2,383.8,160.7,384,160z M384.2,156.3
			c0-1.1-0.3-1.9-0.8-2.4s-1.2-0.8-1.9-0.8c-0.8,0-1.5,0.3-2,0.9c-0.5,0.6-0.8,1.4-0.8,2.4H384.2z"/>
	</g>
</g>
<g>
	<g>
		<path fill="#414142" d="M494,147.5v-19.3h6.3c2.4,0,3.9,0.1,4.6,0.3c1.1,0.3,2,0.9,2.8,1.9c0.7,1,1.1,2.2,1.1,3.8
			c0,1.2-0.2,2.2-0.6,3s-1,1.4-1.6,1.9c-0.7,0.5-1.3,0.8-2,0.9c-0.9,0.2-2.3,0.3-4,0.3h-2.5v7.3H494z M497.9,131.4v5.5h2.1
			c1.5,0,2.6-0.1,3.1-0.3c0.5-0.2,0.9-0.5,1.2-0.9c0.3-0.4,0.4-0.9,0.4-1.5c0-0.7-0.2-1.3-0.6-1.7c-0.4-0.5-0.9-0.7-1.6-0.9
			c-0.5-0.1-1.4-0.1-2.8-0.1H497.9z"/>
		<path fill="#414142" d="M512,131.6v-3.4h3.7v3.4H512z M512,147.5v-14h3.7v14H512z"/>
		<path fill="#414142" d="M531.7,137.6l-3.6,0.7c-0.1-0.7-0.4-1.3-0.8-1.6c-0.4-0.4-1-0.6-1.7-0.6c-0.9,0-1.7,0.3-2.2,1
			c-0.5,0.6-0.8,1.7-0.8,3.2c0,1.7,0.3,2.8,0.8,3.5s1.3,1,2.2,1c0.7,0,1.3-0.2,1.7-0.6c0.4-0.4,0.8-1.1,0.9-2.1l3.6,0.6
			c-0.4,1.7-1.1,2.9-2.2,3.8c-1.1,0.9-2.5,1.3-4.3,1.3c-2,0-3.7-0.6-4.9-1.9s-1.8-3.1-1.8-5.4c0-2.3,0.6-4.1,1.8-5.4
			c1.2-1.3,2.9-1.9,5-1.9c1.7,0,3.1,0.4,4.1,1.1C530.5,135,531.2,136.1,531.7,137.6z"/>
		<path fill="#414142" d="M534.3,147.5v-19.3h3.7v10.2l4.3-4.9h4.6l-4.8,5.1l5.1,8.9h-4l-3.5-6.3L538,143v4.5H534.3z"/>
		<path fill="#414142" d="M566.1,147.5v-2.1c-0.5,0.7-1.2,1.3-2,1.8s-1.7,0.6-2.6,0.6c-0.9,0-1.8-0.2-2.5-0.6s-1.3-1-1.6-1.7
			c-0.3-0.7-0.5-1.8-0.5-3.1v-8.8h3.7v6.4c0,2,0.1,3.2,0.2,3.6c0.1,0.4,0.4,0.8,0.7,1.1c0.4,0.3,0.8,0.4,1.4,0.4
			c0.6,0,1.2-0.2,1.7-0.5c0.5-0.3,0.8-0.8,1-1.3s0.3-1.8,0.3-3.8v-5.9h3.7v14H566.1z"/>
		<path fill="#414142" d="M573.3,133.5h3.4v2.1c0.4-0.7,1.1-1.3,1.8-1.7c0.8-0.4,1.6-0.7,2.5-0.7c1.6,0,3,0.6,4.1,1.9
			c1.1,1.3,1.7,3,1.7,5.3c0,2.3-0.6,4.1-1.7,5.4c-1.1,1.3-2.5,1.9-4.1,1.9c-0.8,0-1.5-0.2-2.1-0.5c-0.6-0.3-1.3-0.8-2-1.6v7h-3.7
			V133.5z M577,140.2c0,1.6,0.3,2.7,0.9,3.5c0.6,0.8,1.4,1.1,2.3,1.1c0.9,0,1.6-0.3,2.1-1c0.6-0.7,0.9-1.8,0.9-3.4
			c0-1.5-0.3-2.6-0.9-3.3s-1.3-1.1-2.2-1.1c-0.9,0-1.7,0.3-2.3,1C577.3,137.8,577,138.9,577,140.2z"/>
		<path fill="#414142" d="M494.6,173.5l-2.2,2.9c-1.1-0.5-2.2-1.3-3.2-2.2c-0.8,0.7-1.6,1.2-2.5,1.6c-0.9,0.3-1.9,0.5-3.1,0.5
			c-2.4,0-4.2-0.7-5.4-2c-0.9-1-1.4-2.2-1.4-3.6c0-1.2,0.4-2.4,1.1-3.3s1.8-1.8,3.3-2.6c-0.7-0.8-1.2-1.5-1.5-2.2
			c-0.3-0.7-0.5-1.4-0.5-2c0-1.2,0.5-2.2,1.4-3s2.3-1.2,4-1.2c1.7,0,3,0.4,3.9,1.3c0.9,0.9,1.4,1.9,1.4,3.1c0,0.8-0.2,1.5-0.7,2.2
			s-1.4,1.5-2.8,2.4l2.7,3.5c0.3-0.6,0.6-1.3,0.8-2.2l3.3,0.8c-0.3,1.2-0.6,2.1-0.9,2.6c-0.2,0.5-0.5,1-0.8,1.4
			c0.4,0.4,0.9,0.8,1.6,1.3C493.8,173,494.3,173.3,494.6,173.5z M483.1,167c-0.9,0.4-1.5,0.9-1.9,1.6c-0.4,0.6-0.6,1.2-0.6,1.9
			c0,0.8,0.3,1.5,0.8,2s1.2,0.8,2.1,0.8c0.6,0,1.1-0.1,1.7-0.3c0.5-0.2,1.1-0.6,1.8-1.1L483.1,167z M484.5,163l1-0.8
			c0.7-0.6,1.1-1.1,1.1-1.7c0-0.5-0.2-0.9-0.5-1.2c-0.4-0.3-0.8-0.5-1.4-0.5c-0.6,0-1,0.1-1.4,0.4s-0.5,0.6-0.5,1
			c0,0.5,0.3,1,0.8,1.7L484.5,163z"/>
		<path fill="#414142" d="M517.3,175.8h-3.4v-2.1c-0.6,0.8-1.2,1.4-2,1.8c-0.8,0.4-1.6,0.6-2.4,0.6c-1.6,0-3-0.6-4.1-1.9
			c-1.1-1.3-1.7-3.1-1.7-5.4c0-2.4,0.6-4.2,1.7-5.4c1.1-1.2,2.5-1.8,4.2-1.8c1.6,0,2.9,0.6,4.1,1.9v-7h3.7V175.8z M507.4,168.5
			c0,1.5,0.2,2.6,0.6,3.2c0.6,1,1.4,1.4,2.5,1.4c0.9,0,1.6-0.4,2.2-1.1c0.6-0.7,0.9-1.8,0.9-3.2c0-1.6-0.3-2.8-0.9-3.5
			c-0.6-0.7-1.3-1.1-2.2-1.1c-0.9,0-1.6,0.3-2.2,1C507.7,166.1,507.4,167.1,507.4,168.5z"/>
		<path fill="#414142" d="M529,171.4l3.7,0.6c-0.5,1.4-1.2,2.4-2.2,3.1c-1,0.7-2.3,1.1-3.8,1.1c-2.4,0-4.2-0.8-5.4-2.4
			c-0.9-1.3-1.4-2.9-1.4-4.8c0-2.3,0.6-4.1,1.8-5.4c1.2-1.3,2.7-2,4.6-2c2.1,0,3.7,0.7,4.9,2.1c1.2,1.4,1.8,3.5,1.7,6.3h-9.3
			c0,1.1,0.3,2,0.9,2.6c0.6,0.6,1.3,0.9,2.1,0.9c0.6,0,1.1-0.2,1.5-0.5C528.5,172.6,528.8,172.1,529,171.4z M529.2,167.6
			c0-1.1-0.3-1.9-0.8-2.4s-1.2-0.8-1.9-0.8c-0.8,0-1.5,0.3-2,0.9c-0.5,0.6-0.8,1.4-0.8,2.4H529.2z"/>
		<path fill="#414142" d="M535.9,175.8v-19.3h3.7v19.3H535.9z"/>
		<path fill="#414142" d="M543.4,159.9v-3.4h3.7v3.4H543.4z M543.4,175.8v-14h3.7v14H543.4z"/>
		<path fill="#414142" d="M554.7,175.8l-5.6-14h3.9l2.6,7.1l0.8,2.4c0.2-0.6,0.3-1,0.4-1.2c0.1-0.4,0.3-0.8,0.4-1.2l2.7-7.1h3.8
			l-5.6,14H554.7z"/>
		<path fill="#414142" d="M574,171.4l3.7,0.6c-0.5,1.4-1.2,2.4-2.2,3.1c-1,0.7-2.3,1.1-3.8,1.1c-2.4,0-4.2-0.8-5.4-2.4
			c-0.9-1.3-1.4-2.9-1.4-4.8c0-2.3,0.6-4.1,1.8-5.4c1.2-1.3,2.7-2,4.6-2c2.1,0,3.7,0.7,4.9,2.1c1.2,1.4,1.8,3.5,1.7,6.3h-9.3
			c0,1.1,0.3,2,0.9,2.6c0.6,0.6,1.3,0.9,2.1,0.9c0.6,0,1.1-0.2,1.5-0.5C573.5,172.6,573.8,172.1,574,171.4z M574.2,167.6
			c0-1.1-0.3-1.9-0.8-2.4s-1.2-0.8-1.9-0.8c-0.8,0-1.5,0.3-2,0.9c-0.5,0.6-0.8,1.4-0.8,2.4H574.2z"/>
		<path fill="#414142" d="M584.4,175.8h-3.7v-14h3.4v2c0.6-0.9,1.1-1.6,1.6-1.9c0.5-0.3,1-0.4,1.6-0.4c0.8,0,1.7,0.2,2.4,0.7
			l-1.1,3.2c-0.6-0.4-1.2-0.6-1.7-0.6c-0.5,0-1,0.1-1.3,0.4c-0.4,0.3-0.6,0.8-0.8,1.5s-0.3,2.3-0.3,4.7V175.8z"/>
		<path fill="#414142" d="M589.6,161.8h3.9l3.3,9.9l3.3-9.9h3.8l-4.9,13.5l-0.9,2.4c-0.3,0.8-0.6,1.4-0.9,1.9s-0.6,0.8-1,1
			s-0.9,0.5-1.4,0.6c-0.6,0.1-1.2,0.2-1.9,0.2c-0.7,0-1.4-0.1-2.1-0.2l-0.3-2.9c0.6,0.1,1.1,0.2,1.6,0.2c0.9,0,1.5-0.3,1.9-0.8
			c0.4-0.5,0.7-1.1,0.9-1.9L589.6,161.8z"/>
	</g>
</g>
</svg>
